<svg xmlns="http://www.w3.org/2000/svg" width="941" height="1672" viewBox="0 0 941 1672">
  <defs>
    <linearGradient id="topShade" x1="0" y1="0" x2="0" y2="1">
      <stop offset="0" stop-color="#123c4a" stop-opacity="0.55"/>
      <stop offset="0.45" stop-color="#123c4a" stop-opacity="0.16"/>
      <stop offset="1" stop-color="#123c4a" stop-opacity="0"/>
    </linearGradient>
    <linearGradient id="card" x1="0" y1="0" x2="1" y2="1">
      <stop stop-color="#173f37" stop-opacity="0.92"/>
      <stop offset="1" stop-color="#295d50" stop-opacity="0.84"/>
    </linearGradient>
    <filter id="shadow" x="-20%" y="-20%" width="140%" height="150%"><feDropShadow dx="0" dy="12" stdDeviation="16" flood-color="#17342c" flood-opacity="0.28"/></filter>
  </defs>
  <g transform="translate(62 500)" filter="url(#shadow)">
    <rect width="817" height="276" rx="24" fill="url(#card)" stroke="#f8e4bb" stroke-opacity="0.48"/>
    <text x="34" y="42" font-family="Source Han Sans CN, PingFang SC, Heiti SC, sans-serif" font-size="15" font-weight="700" letter-spacing="2.4" fill="#f6c675">PLAN A · 22 DAYS · ROAD &amp; AIR</text>
    <g transform="translate(42 86)">
      <!-- Plan A plotted from the project's actual city coordinates: Taiyuan → Xiangyang → Yichang → Enshi → Xianfeng → Zhenyuan → Libo → Pingtang → Guiyang → Xingyi → Fuxian Lake → Kunming → Dali → Tengchong → Puer → Xishuangbanna. -->
      <path d="M735 4 L713 58 L673 71 L585 77 L568 84 L534 111 L508 124 L480 117 L446 108 L361 128 L266 132 L257 125 L138 119 L50 128 L170 149 L161 158" fill="none" stroke="#fff8e8" stroke-width="10" stroke-linecap="round" stroke-linejoin="round" opacity="0.86"/>
      <path d="M735 4 L713 58 L673 71 L585 77 L568 84 L534 111 L508 124 L480 117 L446 108 L361 128 L266 132 L257 125 L138 119 L50 128 L170 149 L161 158" fill="none" stroke="#edb45d" stroke-width="3.8" stroke-linecap="round" stroke-linejoin="round"/>
      <path d="M161 158 C420 154 660 92 735 4" fill="none" stroke="#a88ae4" stroke-width="3" stroke-linecap="round" stroke-dasharray="10 10" opacity="0.95"/>
      <text x="453" y="90" font-family="sans-serif" font-size="22" fill="#cbbaf4">✈</text>
      <g fill="#edb45d" stroke="#fff8e8" stroke-width="2.5">
        <circle cx="735" cy="4" r="8"/><circle cx="585" cy="77" r="4.8"/><circle cx="446" cy="108" r="4.8"/><circle cx="257" cy="125" r="4.8"/><circle cx="50" cy="128" r="4.8"/><circle cx="161" cy="158" r="8"/>
      </g>
      <g font-family="sans-serif" font-size="10" letter-spacing="1.4" fill="#d9ebe1">
        <text x="672" y="20">TAIYUAN</text><text x="548" y="67">ENSHI</text><text x="408" y="100">GUIYANG</text><text x="220" y="116">KUNMING</text><text x="17" y="117">TENGCHONG</text><text x="111" y="148">XISHUANGBANNA</text>
      </g>
    </g>
    <line x1="34" y1="239" x2="783" y2="239" stroke="#d6eadf" stroke-opacity="0.28"/>
    <g font-family="sans-serif" fill="#edf4ef" font-size="13" letter-spacing="1">
      <text x="34" y="263">10 TRAVELLERS</text><text x="278" y="263">≈ 4,780 KM DRIVE</text><text x="585" y="263">✈ 2,092 KM HOME</text>
    </g>
  </g>
</svg>
